<svg width="24" height="24" viewBox="0 0 24 24" fill="none" xmlns="http://www.w3.org/2000/svg">
<path d="M9.21328 11.1116C9.22448 11.1128 9.23568 11.1142 9.24679 11.1162C9.43192 11.1488 10.027 11.4935 10.223 11.596L12.0121 12.532L15.3123 14.2563C15.8837 14.5547 16.4561 14.8515 17.0256 15.1532C17.1494 15.2188 17.2326 15.2925 17.1746 15.4467C16.5556 17.0937 15.7653 18.6752 14.8157 20.1571C14.7075 20.3258 14.5958 20.511 14.469 20.6652C14.359 20.7987 14.2266 20.912 14.0779 21.0003C13.464 21.3684 12.9919 21.2061 12.377 20.9753C12.0599 20.8564 11.746 20.7296 11.4354 20.5948C10.4615 20.1753 10.7242 20.2019 11.3693 19.5717C11.8491 19.1084 12.2753 18.5925 12.64 18.034C12.727 17.9002 12.849 17.7163 12.8864 17.5638C12.9252 17.4032 12.8978 17.2337 12.8104 17.0935C12.7231 16.951 12.5806 16.8512 12.4169 16.8177L12.401 16.8146C11.8745 16.7501 11.7659 17.0231 11.5242 17.3951C11.4383 17.5283 11.348 17.6586 11.2533 17.7859C10.8152 18.3573 10.3045 18.8693 9.73407 19.3089C9.6451 19.3785 9.49655 19.5183 9.38353 19.53C9.23891 19.545 7.45807 18.3701 7.26788 18.2057C7.22349 18.1673 7.19179 18.1247 7.18998 18.0641C7.18773 17.9893 7.22144 17.9257 7.28125 17.8816C7.39613 17.7968 7.57106 17.7639 7.70235 17.7039C8.08052 17.5311 8.54268 17.2519 8.83562 16.9542C8.95926 16.8285 9.03311 16.6807 9.03046 16.5009C9.02794 16.33 8.96219 16.1726 8.83645 16.0552C8.64767 15.8788 8.32632 15.8302 8.09278 15.9468C7.95185 16.0172 7.82959 16.135 7.70545 16.2309C7.57713 16.3294 7.44016 16.4159 7.29621 16.4896C6.84759 16.7196 6.35185 16.8243 5.86226 16.9267C5.78138 16.9437 5.69977 16.9585 5.61697 16.9598C5.4856 16.8735 5.30351 16.7114 5.17989 16.6053C4.84507 16.3192 4.52177 16.0199 4.21076 15.7079C4.06612 15.5628 3.91522 15.4116 3.78795 15.2511C3.52328 14.9175 3.50935 14.4466 3.70549 14.0771C3.82299 13.856 4.00693 13.6773 4.23138 13.5662C4.46312 13.4527 4.98744 13.3859 5.27766 13.3072C6.07673 13.0849 6.84273 12.7574 7.55553 12.3333C7.77574 12.2041 8.01626 12.0533 8.2211 11.8996C8.41414 11.7539 8.60184 11.6013 8.78381 11.4421C8.89877 11.3417 9.07705 11.1538 9.21328 11.1116Z" fill="black"/>
<path d="M18.237 2.09131C18.6105 2.0958 18.9382 2.16644 19.2713 2.34034C19.7797 2.60461 20.1608 3.06176 20.3292 3.60936C20.6444 4.6392 20.1327 5.33628 19.6796 6.20522L18.0855 9.26859C17.9616 9.50514 17.8366 9.71089 17.6806 9.92782C17.6666 9.94739 17.6729 9.9662 17.6847 9.98691C17.8044 10.1951 17.9162 10.3879 18.0053 10.6126C18.2705 11.2789 18.3255 12.0103 18.1628 12.7087C18.1177 12.9016 18.0426 13.141 17.9691 13.3257C17.9132 13.4662 17.8016 13.9148 17.6655 13.9611C17.6234 13.9755 17.5777 13.9749 17.536 13.9594C17.4337 13.9216 17.2749 13.8333 17.1753 13.7808L16.6096 13.483L14.5822 12.4237C14.4628 12.3709 14.2571 12.255 14.1372 12.1922L13.2705 11.7385C13.0152 11.6051 10.3933 10.2647 10.3022 10.165C10.279 10.1396 10.2684 10.1078 10.2678 10.0737C10.2671 10.0257 10.2868 9.97826 10.3113 9.93791C10.3815 9.82247 10.487 9.7234 10.5762 9.62196C10.7246 9.45305 10.8691 9.28023 11.0272 9.1202C11.8334 8.30433 12.8044 7.94171 13.942 7.93464L15.6102 4.71258L16.0909 3.78323C16.2542 3.46673 16.4343 3.07401 16.6666 2.81555C17.1061 2.32641 17.5999 2.1364 18.237 2.09131Z" fill="black"/>
<path d="M3.01266 10.3893C3.52263 10.3158 3.99547 10.6701 4.06811 11.1802C4.14074 11.6903 3.78558 12.1625 3.27536 12.2342C2.7664 12.3058 2.29562 11.9517 2.22317 11.4429C2.15072 10.934 2.50396 10.4626 3.01266 10.3893Z" fill="black"/>
<path d="M5.61818 7.51753C6.12904 7.48211 6.57272 7.8656 6.61165 8.37619C6.65058 8.88678 6.27015 9.3331 5.75984 9.37554C5.24454 9.41839 4.7929 9.03344 4.7536 8.51785C4.71429 8.00226 5.10235 7.55329 5.61818 7.51753Z" fill="black"/>
</svg>
