<svg width="82" height="93" viewBox="0 0 82 93" fill="none" xmlns="http://www.w3.org/2000/svg">
<rect x="12" y="1.16626" width="10.3762" height="17.8566" rx="2.08792" fill="#B99F88"/>
<rect x="20.687" y="3.98157" width="7.56092" height="12.2262" fill="#B99F88"/>
<path d="M24.4675 2.1312C24.4675 1.02078 25.3676 0.120605 26.4781 0.120605H46.185V17.362C46.185 18.8568 44.9732 20.0686 43.4784 20.0686H27.174C25.6792 20.0686 24.4675 18.8568 24.4675 17.362V2.1312Z" fill="#B99F88"/>
<path d="M67.6971 10.2015C59.0744 1.57882 49.4785 0.253784 45.3361 0.253784V8.69949L50.7296 7.85345C52.5891 7.56177 54.4854 7.59868 56.3321 7.9625L67.6971 10.2015Z" fill="#B99F88"/>
<rect x="30.7414" y="19.0229" width="9.25006" height="33.3807" fill="#B99F88"/>
<mask id="mask0_87_1531" style="mask-type:alpha" maskUnits="userSpaceOnUse" x="25" y="51" width="17" height="42">
<path d="M27.309 54.9301C26.0486 53.7254 26.9013 51.5992 28.6448 51.5992H39.5061C40.5738 51.5992 41.4393 52.4648 41.4393 53.5325V91.0097C41.4393 92.0775 40.5738 92.943 39.5061 92.943H27.1533C25.6693 92.943 24.7387 91.3403 25.4742 90.0515L28.1144 85.4253C28.281 85.1334 28.3686 84.8032 28.3686 84.4671V56.7693C28.3686 56.2414 28.1527 55.7364 27.7711 55.3717L27.309 54.9301Z" fill="#FE7207"/>
</mask>
<g mask="url(#mask0_87_1531)">
<rect x="23.824" y="52.0015" width="17.6153" height="40.9416" fill="#FE7207"/>
<path d="M34.7632 92.9431V52.0015H41.4393V92.9431H34.7632Z" fill="#F2AF6D"/>
</g>
<rect x="29.4545" y="29.3187" width="9.25006" height="11.7436" transform="rotate(-90 29.4545 29.3187)" fill="#B99F88"/>
<rect x="34.6023" y="29.3187" width="9.25006" height="6.5957" transform="rotate(-90 34.6023 29.3187)" fill="#ECEAE5"/>
<rect x="35.8893" y="29.3187" width="4.1022" height="22.6828" fill="#ECEAE5"/>
<path d="M13.5091 7.23918V1.1261H20.6179C22.2335 1.1261 22.4624 2.2916 22.4355 2.7933V7.23918H13.5091Z" fill="#ECEAE5"/>
<path d="M44.2546 11.9044H24.7088L24.5106 2.13024C24.4869 0.960789 25.4285 0 26.5981 0H44.2546C56.4807 0 64.9264 5.79134 68.5058 10.0544C60.5788 4.81451 51.8008 4.21272 46.7641 4.73461C45.276 4.8888 44.2546 6.19997 44.2546 7.69599V11.9044Z" fill="#ECEAE5"/>
<circle cx="30.6208" cy="84.6984" r="0.925006" fill="#BC6500"/>
<circle cx="30.6208" cy="81.8831" r="0.925006" fill="#BC6500"/>
<circle cx="30.6208" cy="79.0679" r="0.925006" fill="#BC6500"/>
<circle cx="30.6208" cy="76.2526" r="0.925006" fill="#BC6500"/>
<circle cx="30.6208" cy="73.4375" r="0.925006" fill="#BC6500"/>
<circle cx="30.6208" cy="70.6223" r="0.925006" fill="#BC6500"/>
<circle cx="30.6208" cy="67.807" r="0.925006" fill="#BC6500"/>
<circle cx="30.6208" cy="64.9918" r="0.925006" fill="#BC6500"/>
<circle cx="30.6208" cy="62.1765" r="0.925006" fill="#BC6500"/>
<circle cx="30.6208" cy="59.3613" r="0.925006" fill="#BC6500"/>
<circle cx="30.6208" cy="56.5461" r="0.925006" fill="#BC6500"/>
<circle cx="34.8034" cy="84.6984" r="0.925006" fill="#EA943F"/>
<circle cx="34.8034" cy="81.8831" r="0.925006" fill="#EA943F"/>
<circle cx="34.8034" cy="79.0679" r="0.925006" fill="#EA943F"/>
<circle cx="34.8034" cy="76.2526" r="0.925006" fill="#EA943F"/>
<circle cx="34.8034" cy="73.4375" r="0.925006" fill="#EA943F"/>
<circle cx="34.8034" cy="70.6223" r="0.925006" fill="#EA943F"/>
<circle cx="34.8034" cy="67.807" r="0.925006" fill="#EA943F"/>
<circle cx="34.8034" cy="64.9918" r="0.925006" fill="#EA943F"/>
<circle cx="34.8034" cy="62.1765" r="0.925006" fill="#EA943F"/>
<circle cx="34.8034" cy="59.3613" r="0.925006" fill="#EA943F"/>
<circle cx="34.8034" cy="56.5461" r="0.925006" fill="#EA943F"/>
<circle cx="38.9861" cy="84.6984" r="0.925006" fill="#EA943F"/>
<circle cx="38.9861" cy="81.8831" r="0.925006" fill="#EA943F"/>
<circle cx="38.9861" cy="79.0679" r="0.925006" fill="#EA943F"/>
<circle cx="38.9861" cy="76.2526" r="0.925006" fill="#EA943F"/>
<circle cx="38.9861" cy="73.4375" r="0.925006" fill="#EA943F"/>
<circle cx="38.9861" cy="70.6223" r="0.925006" fill="#EA943F"/>
<circle cx="38.9861" cy="67.807" r="0.925006" fill="#EA943F"/>
<circle cx="38.9861" cy="64.9918" r="0.925006" fill="#EA943F"/>
<circle cx="38.9861" cy="62.1765" r="0.925006" fill="#EA943F"/>
<circle cx="38.9861" cy="59.3613" r="0.925006" fill="#EA943F"/>
<circle cx="38.9861" cy="56.5461" r="0.925006" fill="#EA943F"/>
<path d="M13.3674 16.8914V14.036C13.3674 13.2808 13.9796 12.6686 14.7348 12.6686H19.9229C20.6781 12.6686 21.2903 13.2808 21.2903 14.036V16.8914C21.2903 17.6466 20.6781 18.2588 19.9229 18.2588H14.7348C13.9796 18.2588 13.3674 17.6466 13.3674 16.8914Z" fill="#9C8673"/>
<path d="M22.4566 14.9207V10.899C22.4566 10.4547 22.8167 10.0946 23.2609 10.0946C23.7052 10.0946 24.0653 10.4547 24.0653 10.899V14.9207C24.0653 15.365 23.7052 15.7251 23.2609 15.7251C22.8167 15.7251 22.4566 15.365 22.4566 14.9207Z" fill="#9C8673"/>
<path d="M25.7544 17.173V14.2773C25.7544 13.5221 26.3666 12.9099 27.1218 12.9099H43.3698C44.125 12.9099 44.7372 13.5221 44.7372 14.2773V17.173C44.7372 17.9282 44.125 18.5404 43.3698 18.5404H27.1218C26.3666 18.5404 25.7544 17.9282 25.7544 17.173Z" fill="#9C8673"/>
<path d="M30.5806 27.5088L30.5806 21.7979C30.5806 21.3315 30.9587 20.9534 31.4251 20.9534C31.8916 20.9534 32.2697 21.3315 32.2697 21.7979L32.2697 27.5088C32.2697 27.9753 31.8916 28.3534 31.4251 28.3534C30.9587 28.3534 30.5806 27.9753 30.5806 27.5088Z" fill="#9C8673"/>
<path d="M31.3849 29.3187L33.0741 29.3187L33.074 52.0015L31.3849 52.0015L31.3849 29.3187Z" fill="#9C8673"/>
</svg>
