<svg width="24" height="24" viewBox="0 0 24 24" fill="none" xmlns="http://www.w3.org/2000/svg">
<path d="M15 10.5L13.5 9L16.9393 5.56066L16.0607 4.68198C14.9837 3.60503 13.523 3 12 3C10.477 3 9.01629 3.60503 7.93934 4.68198L7.81066 4.81066C6.65131 5.97001 6 7.54242 6 9.18198L6 10.5L3 10.5V9.18198C3 6.74677 3.96739 4.41129 5.68934 2.68934L5.81802 2.56066C7.45758 0.921097 9.68131 0 12 0C14.3187 0 16.5424 0.921096 18.182 2.56066L19.0607 3.43934L22.5 0L24 1.5V10.5H15Z" fill="black"/>
<path d="M7.93934 19.318C9.01629 20.395 10.477 21 12 21C13.523 21 14.9837 20.395 16.0607 19.318L16.1893 19.1893C17.3487 18.03 18 16.4576 18 14.818V13.5L21 13.5V14.818C21 17.2532 20.0326 19.5887 18.3107 21.3107L18.182 21.4393C16.5424 23.0789 14.3187 24 12 24C9.68131 24 7.45758 23.0789 5.81802 21.4393L4.93934 20.5607L1.5 24L0 22.5L1.43051e-06 13.5L9 13.5L10.5 15L7.06066 18.4393L7.93934 19.318Z" fill="black"/>
</svg>
