<svg width="24" height="24" viewBox="0 0 24 24" fill="none" xmlns="http://www.w3.org/2000/svg">
<path d="M4.5 0L9.87868 5.37868L5.37868 9.87868L0 4.5V0H4.5Z" fill="black"/>
<path d="M10.0607 18.4393L12.3107 20.6893L10.1893 22.8107L6.75 19.3713L4.49657 21.6247C4.49885 21.6662 4.5 21.708 4.5 21.75C4.5 22.9926 3.49264 24 2.25 24C1.00736 24 0 22.9926 0 21.75C0 20.5074 1.00736 19.5 2.25 19.5C2.29203 19.5 2.33379 19.5012 2.37525 19.5034L4.62868 17.25L1.18934 13.8107L3.31066 11.6893L5.56066 13.9393L19.5 0H24V4.5L10.0607 18.4393Z" fill="black"/>
<path d="M21.75 24C20.5074 24 19.5 22.9926 19.5 21.75C19.5 21.708 19.5012 21.6662 19.5034 21.6247L15.1287 17.25L20.6893 11.6893L22.8107 13.8107L19.3713 17.25L21.6247 19.5034C21.6662 19.5012 21.708 19.5 21.75 19.5C22.9926 19.5 24 20.5074 24 21.75C24 22.9926 22.9926 24 21.75 24Z" fill="black"/>
</svg>
